<svg viewBox="5.3 -75.5 610 95.5" xmlns="http://www.w3.org/2000/svg" role="img" aria-label="Fridgeworthy">
  <style>.n{fill:#292E61}.f{fill:#DE30B3}@media(prefers-color-scheme:dark){.n{fill:#aab1f2}.f{fill:#f051c8}}</style>

  <path class="n" d="M14.3 1.1Q10 1.1 7.7 -1.4Q5.3 -3.8 5.3 -8.3L5.3 -61.1Q5.3 -65.6 7.7 -68Q10 -70.5 14.3 -70.5L46.2 -70.5Q49.9 -70.5 52 -68.6Q54.2 -66.7 54.2 -63.2Q54.2 -59.8 52 -57.9Q49.8 -56 46.2 -56L23.2 -56L23.2 -40L44 -40Q47.4 -40 49.4 -38.2Q51.4 -36.4 51.4 -33.1Q51.4 -29.9 49.4 -28.1Q47.4 -26.3 44 -26.3L23.2 -26.3L23.2 -8.3Q23.2 -3.8 20.9 -1.4Q18.5 1.1 14.3 1.1ZM66.7 1.1Q62.8 1.1 60.4 -1.2Q58.1 -3.5 58.1 -7.8L58.1 -45.6Q58.1 -49.8 60.4 -52.1Q62.7 -54.3 66.5 -54.3Q70.1 -54.3 72.4 -52.1Q74.6 -49.8 74.6 -45.6L74.6 -43L75 -43Q76 -48.3 78.8 -51.2Q81.5 -54 85.5 -54Q87 -54 88.2 -53.6Q89.3 -53.3 90.2 -52.6Q91.5 -51.7 92.1 -50Q92.7 -48.3 92.7 -46Q92.7 -41.9 90.3 -39.8Q89.1 -38.7 87.3 -38.1Q85.4 -37.5 83 -37.5Q78.6 -37.4 77 -35.3Q75.4 -33.2 75.4 -28.6L75.4 -7.8Q75.4 -3.5 73 -1.2Q70.7 1.1 66.7 1.1ZM104.1 -58.6Q100.4 -58.6 97.8 -61Q95.3 -63.5 95.3 -67.1Q95.3 -70.7 97.8 -73.1Q100.4 -75.5 104.1 -75.5Q107.9 -75.5 110.4 -73.1Q113 -70.7 113 -67.1Q113 -63.5 110.4 -61Q107.9 -58.6 104.1 -58.6ZM104.1 1.1Q100.1 1.1 97.8 -1.2Q95.5 -3.6 95.5 -7.8L95.5 -45.3Q95.5 -49.6 97.8 -51.9Q100.1 -54.3 104.1 -54.3Q108.2 -54.3 110.5 -51.9Q112.8 -49.5 112.8 -45.3L112.8 -7.8Q112.8 -3.6 110.5 -1.2Q108.2 1.1 104.1 1.1ZM138.8 0.8Q132.2 0.8 127.4 -2.5Q122.7 -5.8 120.1 -12Q117.6 -18.1 117.6 -26.7Q117.6 -35.2 120.2 -41.3Q122.8 -47.4 127.6 -50.7Q132.4 -54 139 -54Q142.9 -54 146 -52.7Q149.2 -51.4 151.5 -49.1Q153.7 -46.8 154.9 -43.8L155.2 -43.8L155.2 -62.6Q155.2 -67.2 157.7 -69.4Q160.1 -71.6 163.9 -71.6Q167.7 -71.6 170.1 -69.4Q172.5 -67.2 172.5 -62.6L172.5 -7.7Q172.5 -3.3 170.1 -1.1Q167.7 1.1 163.9 1.1Q160.1 1.1 157.7 -1.1Q155.2 -3.2 155.2 -7.7L155.2 -9.3L154.9 -9.3Q153.9 -6.4 151.6 -4.1Q149.3 -1.8 146.1 -0.5Q142.8 0.8 138.8 0.8ZM145.3 -12.7Q148.4 -12.7 150.7 -14.4Q152.9 -16 154.1 -19.2Q155.3 -22.3 155.3 -26.5Q155.3 -30.8 154.1 -33.9Q152.9 -37 150.6 -38.7Q148.4 -40.4 145.3 -40.4Q142.2 -40.4 140 -38.7Q137.7 -37.1 136.5 -34Q135.3 -30.9 135.3 -26.6Q135.3 -22.3 136.5 -19.2Q137.7 -16.1 139.9 -14.4Q142.2 -12.7 145.3 -12.7ZM203.8 20Q195 20 188.9 17.1Q182.8 14.2 180.3 10.1Q179.7 9 179.4 7.9Q179.2 6.8 179.2 5.7Q179.2 3.1 181 1.4Q182.9 -0.4 186 -0.4Q189.1 -0.4 191.7 1.7Q194.5 4.1 197.3 5.5Q200.2 6.9 203.6 6.9Q209 6.9 211.9 4.3Q214.9 1.6 214.9 -2.9L214.9 -11.4L214.5 -11.4Q213.5 -8.6 211.2 -6.4Q208.9 -4.3 205.7 -3.1Q202.4 -1.9 198.5 -1.9Q192 -1.9 187.2 -5Q182.4 -8.1 179.9 -14Q177.3 -19.8 177.3 -27.8Q177.3 -36.2 179.9 -42Q182.4 -47.8 187.2 -50.9Q191.9 -54 198.8 -54Q202.6 -54 205.8 -52.7Q208.9 -51.4 211.2 -49.1Q213.5 -46.8 214.7 -43.8L215 -43.8L215 -45.6Q215 -50.1 217.5 -52.2Q220 -54.3 223.7 -54.3Q227.5 -54.3 229.9 -52.2Q232.3 -50.1 232.3 -45.6L232.3 -2.6Q232.3 4.6 229 9.7Q225.6 14.7 219.3 17.4Q212.9 20 203.8 20ZM205 -14.2Q208.1 -14.2 210.4 -15.7Q212.6 -17.3 213.8 -20.3Q215.1 -23.3 215.1 -27.5Q215.1 -31.8 213.8 -34.9Q212.6 -38 210.4 -39.7Q208.1 -41.4 205 -41.4Q201.9 -41.4 199.7 -39.7Q197.5 -38 196.3 -34.9Q195.1 -31.8 195.1 -27.6Q195.1 -23.3 196.2 -20.3Q197.4 -17.3 199.7 -15.7Q201.9 -14.2 205 -14.2ZM264.1 1.3Q251.4 1.3 244.2 -6.1Q237 -13.4 237 -26.3Q237 -35 240.2 -41.2Q243.4 -47.5 249.4 -51Q255.4 -54.4 263.5 -54.4Q271.4 -54.4 277.3 -51.2Q283.2 -48 286.4 -42.4Q289.7 -36.8 289.7 -29.6Q289.7 -26.4 287.9 -24.6Q286.1 -22.8 282.7 -22.8L253.8 -22.8Q253.8 -22.5 253.8 -22.3Q253.8 -22.1 253.8 -21.8Q253.8 -17 256.7 -14Q259.6 -11 264.3 -11Q267.8 -11 270.5 -12.2Q273.3 -13.5 276.1 -16.4Q277.5 -17.7 278.7 -18.2Q279.9 -18.7 281.5 -18.7Q284.1 -18.7 286.1 -17.1Q288 -15.5 288 -12.7Q288 -10.7 286.9 -8.7Q284.2 -4.1 278.2 -1.4Q272.1 1.3 264.1 1.3ZM254 -32.6L273.4 -32.6Q273.2 -35.5 272 -37.7Q270.7 -39.8 268.6 -41Q266.5 -42.2 263.8 -42.2Q261.1 -42.2 259 -41Q256.9 -39.7 255.6 -37.6Q254.2 -35.5 254 -32.6Z"/>
  <path class="f" d="M313.3 1.1Q308.7 1.1 306.2 -1.1Q303.6 -3.3 302.2 -8.1L292.6 -41.4Q292.1 -43.2 291.9 -44.4Q291.6 -45.6 291.6 -46.9Q291.6 -50.2 294 -52.2Q296.3 -54.3 300 -54.3Q303.2 -54.3 305.3 -52.3Q307.4 -50.4 308.1 -46.9L314.7 -15.6L315.1 -15.6L321.8 -46.3Q323.4 -54.3 331.5 -54.3Q339.5 -54.3 341.1 -46.3L347.9 -15.6L348.3 -15.6L354.9 -47Q355.5 -50.5 357.6 -52.4Q359.7 -54.3 362.9 -54.3Q366.4 -54.3 368.7 -52.3Q371 -50.2 371 -47Q371 -45.8 370.8 -44.5Q370.5 -43.3 370 -41.5L360.5 -8.2Q359.1 -3.4 356.5 -1.1Q353.9 1.1 349.2 1.1Q344.3 1.1 341.7 -1.1Q339 -3.4 337.9 -8.3L331.3 -35.8L331 -35.8L324.4 -8.1Q323.3 -3.3 320.7 -1.1Q318 1.1 313.3 1.1ZM399.4 1.3Q391 1.3 384.9 -2Q378.8 -5.3 375.5 -11.5Q372.2 -17.8 372.2 -26.6Q372.2 -35.3 375.6 -41.5Q378.9 -47.8 385 -51.1Q391.1 -54.4 399.4 -54.4Q407.7 -54.4 413.8 -51.1Q419.9 -47.8 423.3 -41.6Q426.6 -35.4 426.6 -26.6Q426.6 -17.7 423.3 -11.5Q420 -5.3 413.9 -2Q407.8 1.3 399.4 1.3ZM399.4 -11.4Q402.3 -11.4 404.5 -13.2Q406.7 -14.9 407.9 -18.3Q409 -21.7 409 -26.6Q409 -31.4 407.9 -34.8Q406.7 -38.2 404.5 -39.9Q402.3 -41.7 399.4 -41.7Q396.5 -41.7 394.3 -39.9Q392.1 -38.2 390.9 -34.8Q389.8 -31.4 389.8 -26.6Q389.8 -21.7 390.9 -18.3Q392.1 -14.9 394.3 -13.2Q396.4 -11.4 399.4 -11.4ZM440 1.1Q436 1.1 433.7 -1.2Q431.3 -3.5 431.3 -7.8L431.3 -45.6Q431.3 -49.8 433.6 -52.1Q436 -54.3 439.7 -54.3Q443.3 -54.3 445.6 -52.1Q447.9 -49.8 447.9 -45.6L447.9 -43L448.3 -43Q449.3 -48.3 452 -51.2Q454.8 -54 458.8 -54Q460.3 -54 461.4 -53.6Q462.6 -53.3 463.4 -52.6Q464.7 -51.7 465.4 -50Q466 -48.3 466 -46Q466 -41.9 463.6 -39.8Q462.4 -38.7 460.5 -38.1Q458.7 -37.5 456.3 -37.5Q451.9 -37.4 450.2 -35.3Q448.6 -33.2 448.6 -28.6L448.6 -7.8Q448.6 -3.5 446.3 -1.2Q444 1.1 440 1.1ZM473 -14.3L473 -40.4L471 -40.4Q468.2 -40.4 466.4 -42.2Q464.7 -43.9 464.7 -46.8Q464.7 -49.7 466.4 -51.4Q468.2 -53.2 471 -53.2L473 -53.2L473 -57.4Q473 -61.7 475.3 -64Q477.5 -66.4 481.6 -66.4Q485.7 -66.4 488 -64Q490.3 -61.7 490.3 -57.4L490.3 -53.2L494.5 -53.2Q497.4 -53.2 499.1 -51.4Q500.9 -49.7 500.9 -46.8Q500.9 -43.9 499.1 -42.2Q497.4 -40.4 494.5 -40.4L490.3 -40.4L490.3 -18.1Q490.3 -15.6 491.2 -14.5Q492 -13.4 493.9 -13.2L494.9 -13Q497.9 -12.7 499.5 -11.3Q501 -9.9 501 -6.9Q501 -4.4 499.4 -2.7Q497.8 -1 495 -0.2Q492.2 0.7 488.9 0.7L488.4 0.7Q480.8 0.7 476.9 -3.1Q473 -6.9 473 -14.3ZM513.9 1.1Q510.2 1.1 507.7 -1.1Q505.3 -3.3 505.3 -7.8L505.3 -62.8Q505.3 -67 507.5 -69.3Q509.7 -71.6 513.8 -71.6Q517.8 -71.6 520 -69.3Q522.2 -67 522.2 -62.8L522.2 -43.2L522.6 -43.2Q524.6 -48.5 528.9 -51.3Q533.1 -54.2 539.2 -54.2Q548.1 -54.2 552.9 -48.9Q557.7 -43.5 557.7 -34.1L557.7 -7.8Q557.7 -3.3 555.2 -1.1Q552.8 1.1 549 1.1Q545.2 1.1 542.8 -1.1Q540.4 -3.3 540.4 -7.8L540.4 -30.4Q540.4 -34.9 538.2 -37.5Q536 -40.1 531.7 -40.1Q528.8 -40.1 526.8 -38.8Q524.7 -37.5 523.7 -35.2Q522.6 -33 522.6 -30L522.6 -7.8Q522.6 -3.3 520.2 -1.1Q517.7 1.1 513.9 1.1ZM574.4 19.6Q568.9 19.6 565.9 17.5Q563 15.5 563 11.6Q563 9.1 564.7 7.6Q566.4 6.1 569.2 6.1Q569.9 6.1 570.4 6.1Q570.9 6.2 571.5 6.2Q573.1 6.2 574.8 5.6Q576.5 5 577.7 3.2L578.1 2.2L561.9 -41Q560.8 -43.8 560.8 -46.3Q560.8 -49.7 563.4 -52Q566 -54.3 569.9 -54.3Q573.4 -54.3 575.3 -52.7Q577.2 -51.1 578.2 -47.2L588.2 -13L588.5 -13L598.5 -47.3Q600.4 -54.3 606.9 -54.3Q610.6 -54.3 613 -52.1Q615.3 -49.9 615.3 -46.6Q615.3 -44.1 614.3 -41.3L599.7 -0.5Q597.1 6.7 593.7 11.2Q590.3 15.6 585.6 17.6Q580.9 19.6 574.4 19.6Z"/>
</svg>
